<svg width="512" height="512" xmlns="http://www.w3.org/2000/svg" class="svg-inline--fa fa-chevron-circle-up fa-w-16">

 <g>
  <title>background</title>
  <rect fill="none" id="canvas_background" height="402" width="582" y="-1" x="-1"/>
 </g>
 <g>
  <title>Layer 1</title>
  <path id="svg_1" d="m8,256c0,-137 111,-248 248,-248s248,111 248,248s-111,248 -248,248s-248,-111 -248,-248zm231,-113.899994l-135.5,135.5c-9.400002,9.399994 -9.400002,24.600006 0,33.899994l17,17c9.399994,9.400024 24.600006,9.400024 33.899994,0l101.600006,-101.600006l101.600006,101.600006c9.399994,9.399994 24.600006,9.399994 33.899994,0l17,-17c9.399994,-9.400024 9.399994,-24.600006 0,-33.900024l-135.5,-135.499969c-9.399994,-9.399994 -24.600006,-9.399994 -34,0z" fill="#c70101"/>
 </g>
</svg>